<?xml version="1.0" encoding="UTF-8" standalone="no"?><!-- Created with Inkscape (http://www.inkscape.org/) -->

<svg width="512" height="512" viewBox="0 0 135.46666 135.46667" version="1.1" id="svg5"
    inkscape:version="1.1.2 (0a00cf5339, 2022-02-04)" sodipodi:docname="logo.svg"
    inkscape:export-filename="/home/m/logo.png" inkscape:export-xdpi="96.000008"
    inkscape:export-ydpi="96.000008" xmlns:inkscape="http://www.inkscape.org/namespaces/inkscape"
    xmlns:sodipodi="http://sodipodi.sourceforge.net/DTD/sodipodi-0.dtd"
    xmlns="http://www.w3.org/2000/svg">
  <sodipodi:namedview id="namedview7" pagecolor="#ffffff" bordercolor="#999999" borderopacity="1"
      inkscape:pageshadow="0" inkscape:pageopacity="0" inkscape:pagecheckerboard="0"
      inkscape:document-units="mm" showgrid="false" units="px" width="512px" inkscape:zoom="1"
      inkscape:cx="241" inkscape:cy="291.5" inkscape:window-width="1864"
      inkscape:window-height="1136" inkscape:window-x="0" inkscape:window-y="27"
      inkscape:window-maximized="1" inkscape:current-layer="layer1" />
  <defs id="defs2">
    <inkscape:path-effect effect="fill_between_many" method="originald" linkedpaths="#path66623,0,1"
        id="path-effect66705" />
  </defs>
  <g inkscape:label="图层 1" inkscape:groupmode="layer" id="layer1">
    <g aria-label="好传" id="text11913"
        style="font-size:63.5px;line-height:1.25;font-family:'Noto Serif CJK SC';-inkscape-font-specification:'Noto Serif CJK SC';stroke-width:0.264583">
      <path
          d="m 22.263361,17.989392 c 1.8415,0 2.286,-0.635 2.54,-1.397 l -6.4135,-1.4605 c -0.5715,3.6195 -1.778,9.144 -3.2385,14.9225 H 6.7058614 l 0.5715,1.905 h 7.3659996 c -1.778,7.0485 -3.8735,14.2875 -5.4609996,18.542 3.1749996,1.9685 6.8579996,4.6355 10.3504996,7.5565 -3.048,5.6515 -7.3025,10.541 -13.4619996,14.478 l 0.6985,0.889 c 6.9849996,-3.4925 11.8744996,-8.001 15.3034996,-13.208 2.794,2.6035 5.2705,5.207 6.731,7.62 3.81,2.0955 6.6675,-3.429 -4.699,-11.1125 3.81,-7.239 5.334,-15.5575 6.35,-24.1935 1.3335,-0.1905 1.905,-0.3175 2.413,-0.889 l -4.572,-4.191 -2.54,2.6035 h -6.4135 c 1.2065,-4.6355 2.286,-8.89 2.921,-12.065 z m 38.608,21.5265 -2.8575,3.683 h -8.636 v -8.128 c 1.524,-0.127 2.0955,-0.6985 2.286,-1.5875 l -1.9685,-0.1905 c 4.064,-2.794 8.636,-6.985 11.557,-9.652 1.3335,-0.0635 2.0955,-0.0635 2.6035,-0.5715 l -4.826,-4.5085 -2.8575,2.7305 h -24.003 l 0.5715,1.8415 h 22.987 c -1.9685,2.921 -4.8895,7.112 -7.493,9.9695 l -2.921,-0.3175 v 10.414 h -14.986 l 0.508,1.8415 h 14.478 v 22.225 c 0,0.889 -0.3175,1.27 -1.524,1.27 -1.27,0 -8.0645,-0.5715 -8.0645,-0.5715 v 1.0795 c 2.9845,0.3175 4.6355,0.889 5.588,1.651 0.889,0.635 1.27,1.778 1.4605,2.9845 5.969,-0.5715 6.604,-2.667 6.604,-6.096 v -22.5425 h 15.0495 c 0.889,0 1.4605,-0.3175 1.651,-1.016 -2.032,-1.905 -5.207,-4.5085 -5.207,-4.5085 z m -47.879,11.2395 c 1.9685,-5.3975 4.064,-12.319 5.842,-18.796 h 7.366 c -0.762,8.255 -2.159,16.002 -5.1435,22.86 -2.2225,-1.3335 -4.8895,-2.667 -8.0645,-4.064 z"
          id="path67847" />
      <path
          d="m 120.68824,22.370892 -2.921,3.6195 h -11.176 c 0.762,-2.921 1.397,-5.6515 1.905,-7.8105 1.4605,0.1905 2.159,-0.4445 2.4765,-1.0795 l -6.1595,-1.905 c -0.508,2.794 -1.397,6.6675 -2.4765,10.795 H 88.366739 l 0.508,1.905 h 12.954001 c -0.889,3.6195 -1.968501,7.366 -2.984501,10.922 h -14.097 l 0.508,1.905 h 13.0175 c -0.9525,3.1115 -1.8415,6.0325 -2.667,8.3185 -0.9525,0.381 -1.9685,0.8255 -2.667,1.27 l 4.572,3.6195 2.0955,-2.159 h 17.018001 c -1.7145,3.429 -4.445,8.001 -6.7945,11.3665 -3.683,-1.778 -8.6995,-3.4925 -15.176501,-4.826 l -0.508,0.889 c 7.493001,2.8575 18.351501,9.0805 22.415501,14.351 4.064,1.143 4.445,-4.5085 -5.3975,-9.7155 3.7465,-3.302 8.3185,-8.0645 10.7315,-11.3665 1.3335,-0.0635 2.159,-0.127 2.667,-0.635 l -4.953,-4.6355 -2.794,2.667 H 99.669739 l 2.794001,-9.144 h 25.019 c 0.889,0 1.524,-0.3175 1.7145,-1.016 -2.0955,-1.9685 -5.5245,-4.699 -5.5245,-4.699 l -3.048,3.81 h -17.5895 l 3.048,-10.922 h 18.288 c 0.8255,0 1.4605,-0.3175 1.651,-1.016 -2.032,-1.9685 -5.334,-4.5085 -5.334,-4.5085 z m -36.195001,11.1125 -2.667,-1.016 c 2.2225,-4.2545 4.2545,-8.8265 5.969,-13.589 1.4605,0 2.159,-0.508 2.4765,-1.2065 l -6.858,-2.159 c -3.175,12.065 -8.636,24.511 -13.9065,32.385 l 0.9525,0.5715 c 2.7305,-2.794 5.3975,-6.1595 7.8105,-9.9695 v 34.9885 h 0.762 c 1.7145,0 3.3655,-1.016 3.429,-1.397 v -37.465 c 1.143,-0.1905 1.778,-0.5715 2.032,-1.143 z"
          id="path67849" />
    </g>
    <g aria-label="lilu.red 里路" id="text21115"
        style="font-size:17.6389px;line-height:1.25;font-family:'Noto Sans Mono CJK SC';-inkscape-font-specification:'Noto Sans Mono CJK SC';stroke-width:0.264583">
      <path
          d="m 14.135266,124.17035 c 0.829028,0 1.340556,-0.15875 2.046112,-0.47625 l -0.405694,-1.25237 c -0.458612,0.28223 -0.829029,0.37042 -1.217085,0.37042 -0.829028,0 -1.340556,-0.49389 -1.340556,-1.71097 v -10.70682 h -1.622779 v 10.58334 c 0,2.11667 0.881945,3.19265 2.540002,3.19265 z"
          id="path67852" />
      <path
          d="m 20.679265,123.94104 h 1.622778 v -9.59556 h -1.622778 z m 0.811389,-11.57112 c 0.652639,0 1.12889,-0.42333 1.12889,-1.05833 0,-0.635 -0.476251,-1.07598 -1.12889,-1.07598 -0.652639,0 -1.12889,0.44098 -1.12889,1.07598 0,0.635 0.476251,1.05833 1.12889,1.05833 z"
          id="path67854" />
      <path
          d="m 31.7741,124.17035 c 0.829028,0 1.340556,-0.15875 2.046112,-0.47625 l -0.405694,-1.25237 c -0.458612,0.28223 -0.829029,0.37042 -1.217085,0.37042 -0.829028,0 -1.340556,-0.49389 -1.340556,-1.71097 v -10.70682 h -1.622779 v 10.58334 c 0,2.11667 0.881945,3.19265 2.540002,3.19265 z"
          id="path67856" />
      <path
          d="m 38.088794,124.15271 c 1.128889,0 1.940279,-0.67028 2.681113,-1.53459 h 0.07055 l 0.123473,1.32292 h 1.305278 v -9.59556 h -1.622779 v 7.00264 c -0.687917,0.9525 -1.252362,1.42875 -1.993195,1.42875 -1.058334,0 -1.375835,-0.74083 -1.375835,-2.29305 v -6.13834 h -1.622779 v 6.35 c 0,2.27542 0.705557,3.45723 2.434169,3.45723 z"
          id="path67858" />
      <path
          d="m 47.948905,124.15271 c 0.635,0 1.181806,-0.45861 1.181806,-1.21709 0,-0.72319 -0.546806,-1.23472 -1.181806,-1.23472 -0.635,0 -1.181806,0.51153 -1.181806,1.23472 0,0.75848 0.546806,1.21709 1.181806,1.21709 z"
          style="fill:#ff0000" id="path67860" />
      <path
          d="m 54.298875,123.94104 h 1.622779 v -6.0325 c 0.829028,-1.69334 1.816807,-2.34598 2.910418,-2.34598 0.511529,0 0.81139,0.0529 1.270001,0.26459 l 0.370417,-1.39348 c -0.493889,-0.19403 -0.846667,-0.29986 -1.516945,-0.29986 -1.305279,0 -2.363613,0.89959 -3.157364,2.18722 h -0.07055 l -0.123472,-1.97555 h -1.305279 z"
          style="fill:#ff0000" id="path67862" />
      <path
          d="m 66.134547,124.15271 c 1.128889,0 1.957918,-0.33514 2.663474,-0.79375 l -0.582084,-1.0407 c -0.564445,0.35278 -1.12889,0.56445 -1.887362,0.56445 -1.569862,0 -2.592919,-1.30528 -2.663474,-3.3514 h 5.45042 c 0.03528,-0.2293 0.05292,-0.58208 0.05292,-0.91722 0,-2.75167 -1.181807,-4.48028 -3.298475,-4.48028 -1.975557,0 -3.810002,1.905 -3.810002,5.02709 0,3.13972 1.816807,4.99181 4.074586,4.99181 z m -2.487085,-5.8032 c 0.123472,-1.86972 1.128889,-2.9457 2.24014,-2.9457 1.181807,0 1.869724,1.02306 1.869724,2.9457 z"
          style="fill:#ff0000" id="path67864" />
      <path
          d="m 73.930907,124.18798 c 0.899584,0 1.587501,-0.56444 2.134307,-1.37583 h 0.03528 l 0.141112,1.12889 h 1.358195 v -13.54668 h -1.622779 v 3.10445 l 0.05292,1.6757 c -0.599723,-0.7232 -1.146529,-1.0407 -1.940279,-1.0407 -1.76389,0 -3.280836,1.79917 -3.280836,5.02709 0,3.33375 1.252362,5.02708 3.122086,5.02708 z m 0.370417,-1.37583 c -1.164168,0 -1.834446,-1.30528 -1.834446,-3.65125 0,-2.27542 0.917223,-3.68653 1.975557,-3.68653 0.546806,0 1.023056,0.19403 1.534584,0.93486 v 5.11528 c -0.546806,0.93486 -1.075973,1.28764 -1.675695,1.28764 z"
          style="fill:#ff0000" id="path67866" />
      <path
          d="m 91.675576,114.34548 h 4.215697 v 2.25778 h -4.215697 z m 5.485698,0 h 4.286256 v 2.25778 h -4.286256 z m -5.485698,-3.31612 h 4.215697 v 2.20487 h -4.215697 z m 5.485698,0 h 4.286256 v 2.20487 h -4.286256 z m -7.37306,8.80182 v 1.23472 h 6.014865 v 2.54 h -7.214311 v 1.23472 h 15.769182 v -1.23472 h -7.12612 v -2.54 h 6.17361 v -1.23472 h -6.17361 v -2.04612 h 5.59153 v -7.95514 H 90.352658 v 7.95514 h 5.450421 v 2.04612 z"
          id="path67868" />
      <path
          d="m 108.0268,111.02936 h 3.33375 v 3.10445 h -3.33375 z m -2.08139,12.17085 0.2293,1.28764 c 1.86973,-0.44098 4.40973,-1.05834 6.82626,-1.6757 l -0.12347,-1.18181 -2.32834,0.54681 v -3.15736 h 1.86973 c 0.24694,0.24694 0.49388,0.61736 0.635,0.88194 0.35277,-0.15875 0.70555,-0.3175 1.05833,-0.51153 v 5.92667 h 1.23472 v -0.65264 h 4.44501 v 0.59973 h 1.25236 v -5.83848 l 0.56444,0.26458 c 0.19403,-0.35277 0.56445,-0.8643 0.82903,-1.11125 -1.60514,-0.59972 -2.9457,-1.53458 -4.05695,-2.61055 1.12889,-1.32292 2.02848,-2.89278 2.61056,-4.72723 l -0.82903,-0.37042 -0.24694,0.0529 h -3.42195 c 0.21167,-0.49389 0.38806,-0.98778 0.56445,-1.49931 l -1.25237,-0.3175 c -0.67027,2.13431 -1.83444,4.14515 -3.22791,5.45042 v -4.69194 h -5.73265 v 5.43278 h 2.50473 v 7.16139 l -1.37584,0.3175 v -5.82083 h -1.12889 v 6.06778 z m 9.40153,0.29986 v -3.40431 h 4.44501 v 3.40431 z m 3.98639,-11.41237 c -0.45861,1.09361 -1.07597,2.08139 -1.79916,2.96333 -0.74084,-0.8643 -1.32292,-1.78152 -1.74625,-2.66347 l 0.15875,-0.29986 z m -4.42736,6.86153 c 0.93486,-0.58208 1.85208,-1.27 2.66347,-2.09903 0.75848,0.77611 1.62278,1.49931 2.61056,2.09903 z m 1.83445,-3.01625 c -1.18181,1.19944 -2.57528,2.13431 -3.9864,2.75167 v -0.84667 h -2.20486 v -2.54 h 2.02848 v -0.56445 c 0.29986,0.21167 0.74083,0.58209 0.93486,0.79375 0.56444,-0.56444 1.11125,-1.25236 1.60514,-2.02847 0.44097,0.79375 0.97014,1.62278 1.62278,2.43417 z"
          id="path67870" />
    </g>
    <path style="fill:#ff0000" d="" id="path67237" transform="scale(0.26458333)" />
    <path id="rect67741" style="fill:#2b0000;stroke-width:0.260761"
        d="M 9.4103737,90.253258 H 123.21988 v 4.037253 H 9.4103737 Z" />
  </g>
</svg>
